Coordinates
version=1
nRows=22
nColumns=24
inDegrees=yes

Units are S.I. units (second, meters, Newtons, ...)
Angles are in degrees.

endheader
time	pelvis_tilt	pelvis_list	pelvis_rotation	pelvis_tx	pelvis_ty	pelvis_tz	hip_flexion_r	hip_adduction_r	hip_rotation_r	knee_angle_r	ankle_angle_r	subtalar_angle_r	mtp_angle_r	hip_flexion_l	hip_adduction_l	hip_rotation_l	knee_angle_l	ankle_angle_l	subtalar_angle_l	mtp_angle_l	lumbar_extension	lumbar_bending	lumbar_rotation
      3.96500000	     -8.61862765	     -3.07980587	     12.53588189	     -1.18282531	     -0.04657238	      0.60868261	     35.49484842	     -4.70327535	    -20.20281021	    -11.11765770	     -1.11146086	      5.75536412	      1.63425602	     -8.32676586	     -1.23160527	      9.80777368	    -11.29165413	     17.24352304	     14.89455334	      0.68884848	      3.95072093	      0.73359872	    -15.63630344
      3.97000000	     -8.61461299	     -3.43722118	     12.62444239	     -1.17516267	     -0.04783606	      0.60898775	     35.51935306	     -4.32899637	    -20.21572776	    -11.51474523	     -1.75276028	      5.67847432	      1.65587793	     -8.34443017	     -1.79263549	      9.17238552	    -12.08437195	     17.53055354	     16.14106304	      0.95162655	      4.06980163	      1.14117340	    -15.71766044
      3.97500000	     -8.63588254	     -3.80523171	     12.65907787	     -1.16743262	     -0.04908191	      0.60928551	     35.60033053	     -3.94986067	    -20.20503689	    -12.01950182	     -2.54269417	      5.60989774	      1.94029448	     -8.35283232	     -2.34536991	      8.64113998	    -12.85300335	     17.69546036	     17.14148436	      1.24617647	      4.22860273	      1.56978744	    -15.72433063
      3.98000000	     -8.63226854	     -4.16180976	     12.64930089	     -1.15974132	     -0.05024641	      0.60967078	     35.70872559	     -3.57080876	    -20.21131608	    -12.66441804	     -3.48055197	      5.36769288	      2.35165477	     -8.35765202	     -2.89714344	      7.98692387	    -13.67552900	     17.78728032	     18.23139356	      1.62359539	      4.34542042	      1.99375742	    -15.68355492
      3.98500000	     -8.64270829	     -4.56768862	     12.63675148	     -1.15201797	     -0.05133408	      0.61001747	     35.84423348	     -3.16738512	    -20.16689091	    -13.37860248	     -4.48142172	      5.05821465	      2.68186779	     -8.30431812	     -3.49740647	      7.36114771	    -14.55867041	     17.79887222	     19.27622480	      2.05183764	      4.49668611	      2.47616271	    -15.64592422
      3.99000000	     -8.65127194	     -4.99392554	     12.57810004	     -1.14428412	     -0.05234080	      0.61040422	     36.01296242	     -2.73631090	    -20.07243058	    -14.19373595	     -5.48935902	      4.64518015	      2.88592327	     -8.21796721	     -4.12081904	      6.67605955	    -15.50543354	     17.72103257	     20.35132218	      2.55770861	      4.64904120	      2.98930407	    -15.55362917
      3.99500000	     -8.66350756	     -5.44380788	     12.49531370	     -1.13654347	     -0.05325500	      0.61079216	     36.21665994	     -2.28700436	    -19.94217904	    -15.10684127	     -6.44750992	      4.11131239	      2.91206617	     -8.08333970	     -4.77264090	      5.93700833	    -16.52556952	     17.54021103	     21.45181669	      3.14432162	      4.81171160	      3.53487269	    -15.44434207
      4.00000000	     -8.66649178	     -5.89693788	     12.36027031	     -1.12881724	     -0.05408374	      0.61125842	     36.44323741	     -1.80927356	    -19.73229898	    -16.11191250	     -7.29788756	      3.45347886	      2.76316646	     -7.91401664	     -5.43940144	      5.12290706	    -17.63128505	     17.23729232	     22.62652823	      3.90199481	      4.95688790	      4.09357042	    -15.23711494
      4.00500000	     -8.68819228	     -6.36109312	     12.20244076	     -1.12107993	     -0.05481636	      0.61171664	     36.69871131	     -1.31791131	    -19.49617395	    -17.16744510	     -8.02961267	      2.70505265	      2.42875645	     -7.68037359	     -6.12111084	      4.26364305	    -18.81394031	     16.78251156	     23.79706560	      4.75659782	      5.12128693	      4.66578839	    -15.07482800
      4.01000000	     -8.68508904	     -6.82523198	     11.93670624	     -1.11326285	     -0.05543580	      0.61228579	     36.93480210	     -0.74803618	    -19.13339451	    -18.26708627	     -8.58808811	      1.92890258	      1.80235546	     -7.46876297	     -6.81412104	      3.30721233	    -20.01545219	     16.06955439	     24.92803956	      6.19793168	      5.25907569	      5.26044295	    -14.70900529
      4.01500000	     -8.77147060	     -7.32173669	     11.84582374	     -1.10559000	     -0.05604571	      0.61265646	     37.24938799	     -0.28363107	    -18.97601561	    -19.36414880	     -9.02117500	      1.04736851	      1.38647352	     -6.99634409	     -7.54703261	      2.60202141	    -21.47943219	     15.39976486	     26.13653601	      6.96891757	      5.50192135	      5.84420373	    -14.63716327
      4.02000000	     -8.72973087	     -7.70684934	     11.49321949	     -1.09781267	     -0.05639022	      0.61339691	     37.41565103	      0.31692401	    -18.45555177	    -20.46936996	     -9.27527553	      0.13355908	      0.44794841	     -6.76102849	     -8.20371199	      1.52066897	    -22.79420279	     14.15550239	     27.24315243	      9.15867318	      5.55077389	      6.36568657	    -14.21738199
      4.02500000	     -8.84972197	     -8.19346145	     11.27806825	     -1.09008072	     -0.05685769	      0.61389980	     37.71300943	      0.86677788	    -18.21134609	    -21.48426458	     -9.44977412	     -0.65109083	      0.15070720	     -6.16692944	     -8.95755909	      0.69303761	    -24.45696648	     13.10871489	     28.49676902	     10.00565278	      5.81945146	      6.94785936	    -14.01528467
      4.03000000	     -8.83099565	     -8.56217806	     10.92100742	     -1.08232067	     -0.05699817	      0.61469661	     37.81071638	      1.50422918	    -17.69396269	    -22.42413245	     -9.53618622	     -1.67306722	     -0.43747904	     -5.79955076	     -9.62738273	     -0.24964432	    -25.94035432	     11.44437547	     29.45984141	     12.36493598	      5.88068769	      7.43889580	    -13.61018393
      4.03500000	     -8.90304593	     -8.96065430	     10.63238974	     -1.07461393	     -0.05715078	      0.61539872	     37.94708711	      2.10511255	    -17.32212174	    -23.25272723	     -9.53784053	     -2.49720254	     -0.60539273	     -5.20583038	    -10.33795601	     -1.05378382	    -27.64629351	      9.75977154	     30.47856246	     13.97941811	      6.05406176	      7.93085104	    -13.33129451
      4.04000000	     -8.97938192	     -9.35064492	     10.32819823	     -1.06693509	     -0.05720248	      0.61613993	     38.03404202	      2.72876206	    -17.00281133	    -23.97526920	     -9.50440507	     -3.30809123	     -0.59208526	     -4.55506929	    -11.04738610	     -1.76848511	    -29.43064918	      7.90846058	     31.33886436	     15.40038760	      6.22340638	      8.41379895	    -13.01035001
      4.04500000	     -9.01584902	     -9.66720881	     10.03453032	     -1.05929808	     -0.05708479	      0.61687796	     37.99177788	      3.31408420	    -16.60113643	    -24.56319752	     -9.31239644	     -3.88951246	     -0.26409916	     -3.91856997	    -11.69744240	     -2.42278623	    -31.19323176	      5.76104180	     31.99002987	     17.22966121	      6.32347070	      8.82082829	    -12.75371146
      4.05000000	     -9.08428894	     -9.98455681	      9.79577229	     -1.05176675	     -0.05695031	      0.61759144	     37.94889748	      3.86031668	    -16.38024228	    -25.10389674	     -8.99684685	     -4.33138098	     -0.07632748	     -3.12979692	    -12.34652243	     -2.87445156	    -33.17081865	      3.77523925	     32.61872508	     17.61394506	      6.45931077	      9.20494008	    -12.52765499
      4.05500000	     -9.14509536	    -10.26981677	      9.48886414	     -1.04436318	     -0.05663578	      0.61850712	     37.81796719	      4.50502008	    -15.86399272	    -25.43279597	     -8.92151415	     -5.24336170	      0.45036808	     -2.33018166	    -12.95972483	     -3.33882698	    -35.04629057	      1.42328464	     32.68761519	     19.24195647	      6.54308020	      9.55773085	    -12.24327722
      4.06000000	     -9.20708362	    -10.54092109	      9.26542875	     -1.03696455	     -0.05625104	      0.61928231	     37.63278674	      5.05647243	    -15.58529708	    -25.71303820	     -8.60623207	     -5.72523690	      0.95333550	     -1.44119355	    -13.55389133	     -3.62456524	    -37.01115346	     -0.82759025	     32.68629935	     19.99021496	      6.65169819	      9.87948795	    -12.06202239
      4.06500000	     -9.24916952	    -10.79093026	      9.04567440	     -1.02969008	     -0.05578285	      0.62007454	     37.38242112	      5.60291171	    -15.29897092	    -25.91559849	     -8.24044035	     -6.13072198	      1.42011110	     -0.50724120	    -14.11409555	     -3.82904204	    -39.02118000	     -2.99098226	     32.39234626	     20.44273177	      6.71902995	     10.17692261	    -11.87363659
      4.07000000	     -9.29385994	    -11.05304360	      8.85270250	     -1.02243580	     -0.05521926	      0.62082199	     37.07879256	      6.15076760	    -15.07807937	    -26.02411393	     -7.83961647	     -6.48271019	      1.77566557	      0.49247078	    -14.66086740	     -3.91045377	    -41.04420578	     -5.04246850	     31.79995632	     20.60155116	      6.80483625	     10.48205824	    -11.70343391
